<?xml version="1.0" encoding="UTF-8" standalone="no"?>
<!-- Created with Inkscape (http://www.inkscape.org/) -->

<svg
   width="360"
   height="640"
   viewBox="0 0 95.25 169.33333"
   version="1.1"
   id="svg5"
   inkscape:version="1.1 (c68e22c387, 2021-05-23)"
   sodipodi:docname="pins.svg"
   xmlns:inkscape="http://www.inkscape.org/namespaces/inkscape"
   xmlns:sodipodi="http://sodipodi.sourceforge.net/DTD/sodipodi-0.dtd"
   xmlns="http://www.w3.org/2000/svg"
   xmlns:svg="http://www.w3.org/2000/svg">
  <sodipodi:namedview
     id="namedview7"
     pagecolor="#505050"
     bordercolor="#ffffff"
     borderopacity="1"
     inkscape:pageshadow="0"
     inkscape:pageopacity="0"
     inkscape:pagecheckerboard="1"
     inkscape:document-units="px"
     showgrid="false"
     inkscape:zoom="1.8406873"
     inkscape:cx="212.14901"
     inkscape:cy="176.0212"
     inkscape:window-width="1920"
     inkscape:window-height="1011"
     inkscape:window-x="0"
     inkscape:window-y="32"
     inkscape:window-maximized="1"
     inkscape:current-layer="layer1" />
  <defs
     id="defs2" />
  <g
     inkscape:label="Layer 1"
     inkscape:groupmode="layer"
     id="layer1">
    <g
       id="g838"
       transform="matrix(2.6666667,0,0,2.6666667,27.852505,-97.677177)">
      <path
         d="m -8.460314,47.238765 h 6.3499999 v 6.35 H -8.460314 Z"
         fill="none"
         id="path824"
         style="stroke-width:0.264583" />
      <path
         d="m -5.285314,47.767932 c -1.0239375,0 -1.8520833,0.828146 -1.8520833,1.852083 0,1.389063 1.8520833,3.439583 1.8520833,3.439583 0,0 1.8520833,-2.05052 1.8520833,-3.439583 0,-1.023937 -0.8281458,-1.852083 -1.8520833,-1.852083 z m 0,2.513541 c -0.365125,0 -0.6614584,-0.296333 -0.6614584,-0.661458 0,-0.365125 0.2963334,-0.661458 0.6614584,-0.661458 0.365125,0 0.6614583,0.296333 0.6614583,0.661458 0,0.365125 -0.2963333,0.661458 -0.6614583,0.661458 z"
         id="path826"
         style="stroke-width:0.264583;fill:#4caf50;fill-opacity:1.0" />
    </g>
    <g
       id="g844"
       transform="matrix(2.6666667,0,0,2.6666667,44.785838,-97.677177)">
      <path
         d="m -8.460314,47.238765 h 6.3499999 v 6.35 H -8.460314 Z"
         fill="none"
         id="path840"
         style="stroke-width:0.264583" />
      <path
         d="m -5.285314,47.767932 c -1.0239375,0 -1.8520833,0.828146 -1.8520833,1.852083 0,1.389063 1.8520833,3.439583 1.8520833,3.439583 0,0 1.8520833,-2.05052 1.8520833,-3.439583 0,-1.023937 -0.8281458,-1.852083 -1.8520833,-1.852083 z m 0,2.513541 c -0.365125,0 -0.6614584,-0.296333 -0.6614584,-0.661458 0,-0.365125 0.2963334,-0.661458 0.6614584,-0.661458 0.365125,0 0.6614583,0.296333 0.6614583,0.661458 0,0.365125 -0.2963333,0.661458 -0.6614583,0.661458 z"
         id="path842"
         style="stroke-width:0.264583;fill:#ff9800;fill-opacity:1.0" />
    </g>
    <g
       id="g850"
       transform="matrix(2.6666667,0,0,2.6666667,61.719171,-97.677177)">
      <path
         d="m -8.460314,47.238765 h 6.3499999 v 6.35 H -8.460314 Z"
         fill="none"
         id="path846"
         style="stroke-width:0.264583" />
      <path
         d="m -5.285314,47.767932 c -1.0239375,0 -1.8520833,0.828146 -1.8520833,1.852083 0,1.389063 1.8520833,3.439583 1.8520833,3.439583 0,0 1.8520833,-2.05052 1.8520833,-3.439583 0,-1.023937 -0.8281458,-1.852083 -1.8520833,-1.852083 z m 0,2.513541 c -0.365125,0 -0.6614584,-0.296333 -0.6614584,-0.661458 0,-0.365125 0.2963334,-0.661458 0.6614584,-0.661458 0.365125,0 0.6614583,0.296333 0.6614583,0.661458 0,0.365125 -0.2963333,0.661458 -0.6614583,0.661458 z"
         id="path848"
         style="stroke-width:0.264583;fill:#ffeb3b;fill-opacity:1.0" />
    </g>
    <g
       id="g856"
       transform="matrix(2.6666667,0,0,2.6666667,78.652504,-97.677177)">
      <path
         d="m -8.460314,47.238765 h 6.3499999 v 6.35 H -8.460314 Z"
         fill="none"
         id="path852"
         style="stroke-width:0.264583" />
      <path
         d="m -5.285314,47.767932 c -1.0239375,0 -1.8520833,0.828146 -1.8520833,1.852083 0,1.389063 1.8520833,3.439583 1.8520833,3.439583 0,0 1.8520833,-2.05052 1.8520833,-3.439583 0,-1.023937 -0.8281458,-1.852083 -1.8520833,-1.852083 z m 0,2.513541 c -0.365125,0 -0.6614584,-0.296333 -0.6614584,-0.661458 0,-0.365125 0.2963334,-0.661458 0.6614584,-0.661458 0.365125,0 0.6614583,0.296333 0.6614583,0.661458 0,0.365125 -0.2963333,0.661458 -0.6614583,0.661458 z"
         id="path854"
         style="stroke-width:0.264583;fill:#f44336;fill-opacity:1.0" />
    </g>
    <g
       id="g862"
       transform="matrix(2.6666667,0,0,2.6666667,95.585837,-97.677177)">
      <path
         d="m -8.460314,47.238765 h 6.3499999 v 6.35 H -8.460314 Z"
         fill="none"
         id="path858"
         style="stroke-width:0.264583" />
      <path
         d="m -5.285314,47.767932 c -1.0239375,0 -1.8520833,0.828146 -1.8520833,1.852083 0,1.389063 1.8520833,3.439583 1.8520833,3.439583 0,0 1.8520833,-2.05052 1.8520833,-3.439583 0,-1.023937 -0.8281458,-1.852083 -1.8520833,-1.852083 z m 0,2.513541 c -0.365125,0 -0.6614584,-0.296333 -0.6614584,-0.661458 0,-0.365125 0.2963334,-0.661458 0.6614584,-0.661458 0.365125,0 0.6614583,0.296333 0.6614583,0.661458 0,0.365125 -0.2963333,0.661458 -0.6614583,0.661458 z"
         id="path860"
         style="stroke-width:0.264583;fill:#2196f3;fill-opacity:1.0" />
    </g>
  </g>
</svg>
